<?xml version="1.0" encoding="UTF-8"?>
<svg version="1.1" xmlns="http://www.w3.org/2000/svg" width="1024" height="1024">
<path d="M0 0 C1.14092467 -0.00327219 2.28184934 -0.00654439 3.45734748 -0.00991574 C5.34197376 -0.0076903 5.34197376 -0.0076903 7.26467329 -0.00541991 C8.61610082 -0.00737272 9.96752778 -0.00976152 11.31895384 -0.01254788 C15.05268712 -0.0189599 18.78639891 -0.01910855 22.52013664 -0.01827047 C26.57471065 -0.01843973 30.62927691 -0.02434322 34.68384707 -0.02951133 C42.73473764 -0.03884786 50.7856227 -0.04276115 58.83651801 -0.0450303 C68.47632111 -0.04798965 78.11611689 -0.05668551 87.75591615 -0.06544458 C111.05853629 -0.08630134 134.36115771 -0.09676085 157.66378501 -0.10557419 C168.68529782 -0.10977908 179.70681008 -0.11500129 190.72832243 -0.12025872 C228.44779236 -0.13815028 266.16726244 -0.15314666 303.88673598 -0.16057891 C306.25535953 -0.16105367 308.62398309 -0.16152955 310.99260664 -0.16200657 C312.75456487 -0.16236113 312.75456487 -0.16236113 314.55211822 -0.16272286 C320.50354223 -0.16392407 326.45496624 -0.16513952 332.40639025 -0.16636485 C333.58747425 -0.166605 334.76855825 -0.16684515 335.98543267 -0.16709258 C374.28128124 -0.17498597 412.57709884 -0.19841793 450.87293389 -0.23092079 C491.35037969 -0.2652126 531.82780736 -0.28492947 572.30526793 -0.28822315 C576.7481913 -0.28864069 581.19111467 -0.28912026 585.63403803 -0.28964633 C586.72803071 -0.28976952 587.82202339 -0.28989271 588.94916736 -0.29001964 C606.56115519 -0.29235252 624.17310709 -0.30801747 641.7850821 -0.32848817 C659.48634834 -0.34873632 677.18757137 -0.35422826 694.88884705 -0.34471754 C705.40634065 -0.33949859 715.9236905 -0.3453987 726.44116344 -0.36725221 C733.4682765 -0.38075038 740.4952905 -0.37969197 747.52240453 -0.36685025 C751.52531948 -0.3599471 755.52795943 -0.35930619 759.53084993 -0.37641034 C763.17826252 -0.39186829 766.82518031 -0.38863662 770.47257866 -0.37100006 C772.39036919 -0.36640409 774.30817691 -0.38129108 776.2259073 -0.39715984 C793.75758895 -0.25784445 809.4014847 6.97439991 821.77968127 19.23817617 C836.24541441 34.95718135 839.41399528 52.77791281 838.63075548 73.34364492 C838.23997934 79.04437927 836.82505665 83.91823318 834.43983752 89.12880117 C833.72827502 90.73368398 833.72827502 90.73368398 833.00233752 92.37098867 C824.97980047 108.76319176 811.60699259 119.9514017 794.43983752 126.12880117 C786.88746191 128.19091853 779.83253762 128.41093941 772.02820402 128.38327676 C770.67405615 128.38566947 769.31990959 128.38893649 767.96576568 128.39299336 C764.24777205 128.40159802 760.52987962 128.39779331 756.81188448 128.39193764 C752.76572168 128.38776314 748.71957721 128.39517167 744.67341888 128.40109015 C737.58290825 128.40985269 730.4924265 128.41116406 723.4019118 128.40758687 C712.8579493 128.40228144 702.31401479 128.40837358 691.77005534 128.41666981 C671.84330047 128.43191737 651.91655829 128.43361409 631.98979881 128.43114678 C616.60300404 128.42931472 601.21621344 128.43107189 585.8294192 128.43537122 C583.61946839 128.43597362 581.40951759 128.43657482 579.19956679 128.43717482 C575.8694532 128.43808207 572.53933961 128.43899073 569.20922602 128.43990717 C538.24374142 128.4483379 507.2782584 128.45267157 476.31277281 128.44850045 C475.14520997 128.44834408 473.97764713 128.4481877 472.7747036 128.44802659 C466.85692265 128.44722079 460.93914171 128.44637502 455.02136078 128.44551329 C453.25840041 128.44525665 453.25840041 128.44525665 451.45982469 128.44499484 C449.08306819 128.44464818 446.7063117 128.44429965 444.32955521 128.44394925 C407.34474079 128.43859169 370.35995022 128.44652299 333.37514025 128.46498281 C291.82972407 128.48569459 250.28432265 128.4964271 208.73890102 128.49240732 C204.30983506 128.49201197 199.8807691 128.49165042 195.45170313 128.49130994 C193.81586118 128.49117384 193.81586118 128.49117384 192.14697192 128.491035 C175.67740503 128.48986858 159.20785305 128.49652065 142.73828989 128.50712186 C124.00954921 128.51916491 105.28084137 128.52074314 86.5521002 128.50833169 C76.06994583 128.50169627 65.58786998 128.50334991 55.10572186 128.51692021 C48.10361232 128.52515467 41.10156169 128.52248021 34.09945696 128.51094494 C30.11013004 128.50467859 26.12095652 128.5031133 22.13163837 128.51480827 C18.49781654 128.525363 14.86427775 128.52195176 11.23047096 128.50770375 C9.31751284 128.50371581 7.40454097 128.51434387 5.49161229 128.52568081 C-12.61383174 128.4121666 -28.2052307 121.76908761 -40.97031873 108.98426992 C-55.32341859 93.15905726 -58.53575163 75.51727358 -57.75108045 54.91395742 C-57.36030431 49.21322306 -55.94538162 44.33936915 -53.56016248 39.12880117 C-52.84859998 37.52391835 -52.84859998 37.52391835 -52.12266248 35.88661367 C-44.58039994 20.47574069 -32.3197167 8.95108837 -16.06016248 3.19130117 C-10.52033629 1.35093098 -5.84889015 0.00438909 0 0 Z " fill="#000000" transform="translate(121.56016248464584,703.8711988329887)"/>
<path d="M0 0 C1.14092467 -0.00327219 2.28184934 -0.00654439 3.45734748 -0.00991574 C5.34197376 -0.0076903 5.34197376 -0.0076903 7.26467329 -0.00541991 C8.61610082 -0.00737272 9.96752778 -0.00976152 11.31895384 -0.01254788 C15.05268712 -0.0189599 18.78639891 -0.01910855 22.52013664 -0.01827047 C26.57471065 -0.01843973 30.62927691 -0.02434322 34.68384707 -0.02951133 C42.73473764 -0.03884786 50.7856227 -0.04276115 58.83651801 -0.0450303 C68.47632111 -0.04798965 78.11611689 -0.05668551 87.75591615 -0.06544458 C111.05853629 -0.08630134 134.36115771 -0.09676085 157.66378501 -0.10557419 C168.68529782 -0.10977908 179.70681008 -0.11500129 190.72832243 -0.12025872 C228.44779236 -0.13815028 266.16726244 -0.15314666 303.88673598 -0.16057891 C306.25535953 -0.16105367 308.62398309 -0.16152955 310.99260664 -0.16200657 C312.75456487 -0.16236113 312.75456487 -0.16236113 314.55211822 -0.16272286 C320.50354223 -0.16392407 326.45496624 -0.16513952 332.40639025 -0.16636485 C333.58747425 -0.166605 334.76855825 -0.16684515 335.98543267 -0.16709258 C374.28128124 -0.17498597 412.57709884 -0.19841793 450.87293389 -0.23092079 C491.35037969 -0.2652126 531.82780736 -0.28492947 572.30526793 -0.28822315 C576.7481913 -0.28864069 581.19111467 -0.28912026 585.63403803 -0.28964633 C586.72803071 -0.28976952 587.82202339 -0.28989271 588.94916736 -0.29001964 C606.56115519 -0.29235252 624.17310709 -0.30801747 641.7850821 -0.32848817 C659.48634834 -0.34873632 677.18757137 -0.35422826 694.88884705 -0.34471754 C705.40634065 -0.33949859 715.9236905 -0.3453987 726.44116344 -0.36725221 C733.4682765 -0.38075038 740.4952905 -0.37969197 747.52240453 -0.36685025 C751.52531948 -0.3599471 755.52795943 -0.35930619 759.53084993 -0.37641034 C763.17826252 -0.39186829 766.82518031 -0.38863662 770.47257866 -0.37100006 C772.39036919 -0.36640409 774.30817691 -0.38129108 776.2259073 -0.39715984 C793.75758895 -0.25784445 809.4014847 6.97439991 821.77968127 19.23817617 C836.24541441 34.95718135 839.41399528 52.77791281 838.63075548 73.34364492 C838.23997934 79.04437927 836.82505665 83.91823318 834.43983752 89.12880117 C833.72827502 90.73368398 833.72827502 90.73368398 833.00233752 92.37098867 C824.97980047 108.76319176 811.60699259 119.9514017 794.43983752 126.12880117 C786.88746191 128.19091853 779.83253762 128.41093941 772.02820402 128.38327676 C770.67405615 128.38566947 769.31990959 128.38893649 767.96576568 128.39299336 C764.24777205 128.40159802 760.52987962 128.39779331 756.81188448 128.39193764 C752.76572168 128.38776314 748.71957721 128.39517167 744.67341888 128.40109015 C737.58290825 128.40985269 730.4924265 128.41116406 723.4019118 128.40758687 C712.8579493 128.40228144 702.31401479 128.40837358 691.77005534 128.41666981 C671.84330047 128.43191737 651.91655829 128.43361409 631.98979881 128.43114678 C616.60300404 128.42931472 601.21621344 128.43107189 585.8294192 128.43537122 C583.61946839 128.43597362 581.40951759 128.43657482 579.19956679 128.43717482 C575.8694532 128.43808207 572.53933961 128.43899073 569.20922602 128.43990717 C538.24374142 128.4483379 507.2782584 128.45267157 476.31277281 128.44850045 C475.14520997 128.44834408 473.97764713 128.4481877 472.7747036 128.44802659 C466.85692265 128.44722079 460.93914171 128.44637502 455.02136078 128.44551329 C453.25840041 128.44525665 453.25840041 128.44525665 451.45982469 128.44499484 C449.08306819 128.44464818 446.7063117 128.44429965 444.32955521 128.44394925 C407.34474079 128.43859169 370.35995022 128.44652299 333.37514025 128.46498281 C291.82972407 128.48569459 250.28432265 128.4964271 208.73890102 128.49240732 C204.30983506 128.49201197 199.8807691 128.49165042 195.45170313 128.49130994 C193.81586118 128.49117384 193.81586118 128.49117384 192.14697192 128.491035 C175.67740503 128.48986858 159.20785305 128.49652065 142.73828989 128.50712186 C124.00954921 128.51916491 105.28084137 128.52074314 86.5521002 128.50833169 C76.06994583 128.50169627 65.58786998 128.50334991 55.10572186 128.51692021 C48.10361232 128.52515467 41.10156169 128.52248021 34.09945696 128.51094494 C30.11013004 128.50467859 26.12095652 128.5031133 22.13163837 128.51480827 C18.49781654 128.525363 14.86427775 128.52195176 11.23047096 128.50770375 C9.31751284 128.50371581 7.40454097 128.51434387 5.49161229 128.52568081 C-12.61383174 128.4121666 -28.2052307 121.76908761 -40.97031873 108.98426992 C-55.32341859 93.15905726 -58.53575163 75.51727358 -57.75108045 54.91395742 C-57.36030431 49.21322306 -55.94538162 44.33936915 -53.56016248 39.12880117 C-52.84859998 37.52391835 -52.84859998 37.52391835 -52.12266248 35.88661367 C-44.58039994 20.47574069 -32.3197167 8.95108837 -16.06016248 3.19130117 C-10.52033629 1.35093098 -5.84889015 0.00438909 0 0 Z " fill="#000000" transform="translate(121.56016248464584,447.87119883298874)"/>
<path d="M0 0 C1.14092467 -0.00327219 2.28184934 -0.00654439 3.45734748 -0.00991574 C5.34197376 -0.0076903 5.34197376 -0.0076903 7.26467329 -0.00541991 C8.61610082 -0.00737272 9.96752778 -0.00976152 11.31895384 -0.01254788 C15.05268712 -0.0189599 18.78639891 -0.01910855 22.52013664 -0.01827047 C26.57471065 -0.01843973 30.62927691 -0.02434322 34.68384707 -0.02951133 C42.73473764 -0.03884786 50.7856227 -0.04276115 58.83651801 -0.0450303 C68.47632111 -0.04798965 78.11611689 -0.05668551 87.75591615 -0.06544458 C111.05853629 -0.08630134 134.36115771 -0.09676085 157.66378501 -0.10557419 C168.68529782 -0.10977908 179.70681008 -0.11500129 190.72832243 -0.12025872 C228.44779236 -0.13815028 266.16726244 -0.15314666 303.88673598 -0.16057891 C306.25535953 -0.16105367 308.62398309 -0.16152955 310.99260664 -0.16200657 C312.75456487 -0.16236113 312.75456487 -0.16236113 314.55211822 -0.16272286 C320.50354223 -0.16392407 326.45496624 -0.16513952 332.40639025 -0.16636485 C333.58747425 -0.166605 334.76855825 -0.16684515 335.98543267 -0.16709258 C374.28128124 -0.17498597 412.57709884 -0.19841793 450.87293389 -0.23092079 C491.35037969 -0.2652126 531.82780736 -0.28492947 572.30526793 -0.28822315 C576.7481913 -0.28864069 581.19111467 -0.28912026 585.63403803 -0.28964633 C586.72803071 -0.28976952 587.82202339 -0.28989271 588.94916736 -0.29001964 C606.56115519 -0.29235252 624.17310709 -0.30801747 641.7850821 -0.32848817 C659.48634834 -0.34873632 677.18757137 -0.35422826 694.88884705 -0.34471754 C705.40634065 -0.33949859 715.9236905 -0.3453987 726.44116344 -0.36725221 C733.4682765 -0.38075038 740.4952905 -0.37969197 747.52240453 -0.36685025 C751.52531948 -0.3599471 755.52795943 -0.35930619 759.53084993 -0.37641034 C763.17826252 -0.39186829 766.82518031 -0.38863662 770.47257866 -0.37100006 C772.39036919 -0.36640409 774.30817691 -0.38129108 776.2259073 -0.39715984 C793.75758895 -0.25784445 809.4014847 6.97439991 821.77968127 19.23817617 C836.24541441 34.95718135 839.41399528 52.77791281 838.63075548 73.34364492 C838.23997934 79.04437927 836.82505665 83.91823318 834.43983752 89.12880117 C833.72827502 90.73368398 833.72827502 90.73368398 833.00233752 92.37098867 C824.97980047 108.76319176 811.60699259 119.9514017 794.43983752 126.12880117 C786.88746191 128.19091853 779.83253762 128.41093941 772.02820402 128.38327676 C770.67405615 128.38566947 769.31990959 128.38893649 767.96576568 128.39299336 C764.24777205 128.40159802 760.52987962 128.39779331 756.81188448 128.39193764 C752.76572168 128.38776314 748.71957721 128.39517167 744.67341888 128.40109015 C737.58290825 128.40985269 730.4924265 128.41116406 723.4019118 128.40758687 C712.8579493 128.40228144 702.31401479 128.40837358 691.77005534 128.41666981 C671.84330047 128.43191737 651.91655829 128.43361409 631.98979881 128.43114678 C616.60300404 128.42931472 601.21621344 128.43107189 585.8294192 128.43537122 C583.61946839 128.43597362 581.40951759 128.43657482 579.19956679 128.43717482 C575.8694532 128.43808207 572.53933961 128.43899073 569.20922602 128.43990717 C538.24374142 128.4483379 507.2782584 128.45267157 476.31277281 128.44850045 C475.14520997 128.44834408 473.97764713 128.4481877 472.7747036 128.44802659 C466.85692265 128.44722079 460.93914171 128.44637502 455.02136078 128.44551329 C453.25840041 128.44525665 453.25840041 128.44525665 451.45982469 128.44499484 C449.08306819 128.44464818 446.7063117 128.44429965 444.32955521 128.44394925 C407.34474079 128.43859169 370.35995022 128.44652299 333.37514025 128.46498281 C291.82972407 128.48569459 250.28432265 128.4964271 208.73890102 128.49240732 C204.30983506 128.49201197 199.8807691 128.49165042 195.45170313 128.49130994 C193.81586118 128.49117384 193.81586118 128.49117384 192.14697192 128.491035 C175.67740503 128.48986858 159.20785305 128.49652065 142.73828989 128.50712186 C124.00954921 128.51916491 105.28084137 128.52074314 86.5521002 128.50833169 C76.06994583 128.50169627 65.58786998 128.50334991 55.10572186 128.51692021 C48.10361232 128.52515467 41.10156169 128.52248021 34.09945696 128.51094494 C30.11013004 128.50467859 26.12095652 128.5031133 22.13163837 128.51480827 C18.49781654 128.525363 14.86427775 128.52195176 11.23047096 128.50770375 C9.31751284 128.50371581 7.40454097 128.51434387 5.49161229 128.52568081 C-12.61383174 128.4121666 -28.2052307 121.76908761 -40.97031873 108.98426992 C-55.32341859 93.15905726 -58.53575163 75.51727358 -57.75108045 54.91395742 C-57.36030431 49.21322306 -55.94538162 44.33936915 -53.56016248 39.12880117 C-52.84859998 37.52391835 -52.84859998 37.52391835 -52.12266248 35.88661367 C-44.58039994 20.47574069 -32.3197167 8.95108837 -16.06016248 3.19130117 C-10.52033629 1.35093098 -5.84889015 0.00438909 0 0 Z " fill="#000000" transform="translate(121.56016248464584,191.87119883298874)"/>
</svg>
